<svg xmlns="http://www.w3.org/2000/svg" width="40" height="40" viewBox="0 0 40 40">
    <defs>
        <style>
            .cls-1{fill:#f58522}
        </style>
    </defs>
    <g id="ic_brightness_high_24px" transform="translate(-1195 -399)">
        <path id="ic_brightness_high_24px-2" d="M34.837 14.837V6.543h-8.294L20.69.69l-5.853 5.853H6.543v8.294L.69 20.69l5.853 5.853v8.294h8.294l5.853 5.853 5.853-5.853h8.294v-8.294l5.853-5.853zM20.69 31.3A10.61 10.61 0 1 1 31.3 20.69 10.618 10.618 0 0 1 20.69 31.3zm0-17.683a7.073 7.073 0 1 0 7.073 7.073 7.071 7.071 0 0 0-7.073-7.073z" class="cls-1" data-name="ic_brightness_high_24px" transform="translate(1194.31 398.31)"/>
    </g>
</svg>
