<?xml version="1.0" encoding="UTF-8" standalone="no" ?><svg xmlns="http://www.w3.org/2000/svg" width="73.407" height="64.231" viewBox="0 0 73.407 64.231"><defs><style>.a{fill:#0e375f;}</style></defs><g transform="translate(0 -34.446)"><path class="a" d="M160.686,34.446H105.631a2.293,2.293,0,0,0-2.294,2.294V48.21h4.588V39.034h50.467V94.089H107.925V84.913h-4.588v11.47a2.293,2.293,0,0,0,2.294,2.294h55.055a2.293,2.293,0,0,0,2.294-2.294V36.74A2.293,2.293,0,0,0,160.686,34.446Z" transform="translate(-89.573 0)"/><path class="a" d="M27.25,187.579l3.244,3.244,15.386-15.386L30.494,160.051l-3.244,3.244,9.848,9.848H0v4.588H37.1Z" transform="translate(0 -108.875)"/></g></svg>