<?xml version="1.0" encoding="UTF-8" standalone="no"?>
<!DOCTYPE svg PUBLIC "-//W3C//DTD SVG 1.1//EN" "http://www.w3.org/Graphics/SVG/1.1/DTD/svg11.dtd">
<svg width="100%" height="100%" viewBox="0 0 35 35" version="1.1" xmlns="http://www.w3.org/2000/svg" xmlns:xlink="http://www.w3.org/1999/xlink" xml:space="preserve" xmlns:serif="http://www.serif.com/" style="fill-rule:evenodd;clip-rule:evenodd;stroke-linejoin:round;stroke-miterlimit:2;">
    <path d="M32.813,15.312C32.033,15.312 31.309,15.73 30.919,16.406L28.932,16.406C28.715,14.123 27.816,11.958 26.353,10.193L27.762,8.784C27.947,8.834 28.137,8.859 28.328,8.859C29.529,8.859 30.516,7.871 30.516,6.671C30.516,5.47 29.529,4.483 28.328,4.483C27.128,4.483 26.14,5.47 26.14,6.671C26.14,6.862 26.165,7.052 26.215,7.237L24.807,8.647C23.042,7.184 20.877,6.285 18.594,6.068L18.594,4.081C19.27,3.691 19.688,2.967 19.688,2.186C19.688,0.986 18.7,-0.002 17.5,-0.002C16.3,-0.002 15.312,0.986 15.312,2.186C15.312,2.967 15.73,3.691 16.406,4.081L16.406,6.068C14.123,6.285 11.958,7.184 10.193,8.647L8.784,7.238C8.834,7.053 8.859,6.862 8.859,6.671C8.859,5.47 7.871,4.483 6.671,4.483C5.47,4.483 4.483,5.47 4.483,6.671C4.483,7.871 5.47,8.859 6.671,8.859C6.862,8.859 7.053,8.834 7.238,8.784L8.647,10.193C7.184,11.958 6.285,14.123 6.068,16.406L4.081,16.406C3.691,15.73 2.967,15.312 2.186,15.312C0.986,15.312 -0.002,16.3 -0.002,17.5C-0.002,18.7 0.986,19.688 2.186,19.688C2.967,19.688 3.691,19.27 4.081,18.594L6.068,18.594C6.285,20.877 7.184,23.042 8.647,24.807L7.238,26.216C7.053,26.166 6.863,26.141 6.672,26.141C5.471,26.141 4.484,27.129 4.484,28.329C4.484,29.53 5.471,30.517 6.672,30.517C7.872,30.517 8.86,29.53 8.86,28.329C8.86,28.138 8.835,27.948 8.785,27.763L10.194,26.354C11.959,27.817 14.124,28.716 16.407,28.933L16.407,30.92C15.731,31.31 15.313,32.034 15.313,32.815C15.313,34.015 16.301,35.003 17.501,35.003C18.701,35.003 19.689,34.015 19.689,32.815C19.689,32.034 19.271,31.31 18.595,30.92L18.595,28.932C20.878,28.715 23.043,27.816 24.808,26.353L26.217,27.762C26.167,27.947 26.142,28.137 26.142,28.328C26.142,29.529 27.13,30.516 28.33,30.516C29.531,30.516 30.518,29.529 30.518,28.328C30.518,27.128 29.531,26.14 28.33,26.14C28.139,26.14 27.949,26.165 27.764,26.215L26.355,24.806C27.818,23.041 28.717,20.876 28.934,18.593L30.921,18.593C31.311,19.269 32.035,19.686 32.815,19.686C34.014,19.686 35.002,18.699 35.002,17.499C35.002,16.299 34.015,15.312 32.815,15.312L32.813,15.312ZM13.877,16.953C12.827,16.953 11.963,16.089 11.963,15.039C11.963,13.989 12.827,13.125 13.877,13.125C14.927,13.125 15.791,13.989 15.791,15.039C15.79,16.089 14.927,16.952 13.877,16.953ZM18.594,23.516C17.394,23.516 16.406,22.528 16.406,21.328C16.406,20.128 17.394,19.14 18.594,19.14C19.794,19.14 20.782,20.128 20.782,21.328C20.782,21.328 20.782,21.329 20.782,21.329C20.78,22.529 19.794,23.515 18.594,23.516ZM22.422,15.86C21.522,15.86 20.781,15.119 20.781,14.219C20.781,13.319 21.522,12.578 22.422,12.578C23.322,12.578 24.063,13.319 24.063,14.219C24.061,15.118 23.321,15.858 22.422,15.859L22.422,15.86Z" style="fill:#F15C5C;fill-rule:nonzero;"/>
</svg>
