<?xml version="1.0" encoding="UTF-8" standalone="no" ?><svg xmlns="http://www.w3.org/2000/svg" xmlns:xlink="http://www.w3.org/1999/xlink" width="200" height="72.239" viewBox="0 0 200 72.239"><defs><style>.a{fill:none;}.b{fill:#0e375f;}.c{clip-path:url(#a);}.d{fill:#fff;}</style><clipPath id="a"><path class="a" d="M0,21.215H200V-51.024H0Z" transform="translate(0 51.024)"/></clipPath></defs><g transform="translate(0 51.024)"><path class="b" d="M0-13.03H200V-43.225H0Z" transform="translate(0 3.243)"/><g class="c" transform="translate(0 -51.024)"><g transform="translate(8.484 12.849)"><path class="b" d="M1.811,2.24c2.574,1.533,5.129,3.085,7.7,4.635,1.277.769,2.571,1.538,3.85,2.319q.96.576,1.917,1.152a3.46,3.46,0,0,0,2.077.767,2.511,2.511,0,0,0,1.07-.29c.337-.191.64-.382.958-.575.64-.384,1.278-.783,1.918-1.167,1.293-.767,2.571-1.535,3.867-2.318q3.833-2.3,7.7-4.638a19.449,19.449,0,0,1-9.857-.27,19.974,19.974,0,0,1-4.586-2A21.226,21.226,0,0,1,16.32-1.6a17.918,17.918,0,0,0-2.03-1.44A15.773,15.773,0,0,0-4.355-1.5v.031L-1.607.176A12.914,12.914,0,0,1,9.769-1.758a1.459,1.459,0,0,1,.639.336,1.1,1.1,0,0,1,.415.672A1.438,1.438,0,0,1,10.456.656a1.3,1.3,0,0,1-.687.353A2.138,2.138,0,0,1,9.05.976,11.6,11.6,0,0,0,7.58.881,12.483,12.483,0,0,0,1.811,2.24" transform="translate(4.355 5.388)"/></g><g transform="translate(37.909 8.948)"><path class="d" d="M2.29,1.066a12.209,12.209,0,0,1-4.266.8A12.388,12.388,0,0,1-4.149,1.69a1.961,1.961,0,0,1-.511-.112,1.306,1.306,0,0,1-.447-.319A1.385,1.385,0,0,1-5.508.22,1.47,1.47,0,0,1-5.06-.772a1.4,1.4,0,0,1,.5-.29,1.161,1.161,0,0,1,.511-.064,10.906,10.906,0,0,0,2.173-.11A12.043,12.043,0,0,0,2.273-2.563Z" transform="translate(5.509 2.563)"/></g><g transform="translate(14.219 8.55)"><path class="d" d="M10.787,1.38V6.465a19.516,19.516,0,0,1-18.725.286,18.893,18.893,0,0,1-2.124-1.278c-.337-.221-.656-.463-.975-.719S-11.678,4.243-12,4A16.2,16.2,0,0,0-16.341,1.78a15.623,15.623,0,0,0-9.6-.1V-2.761a19.586,19.586,0,0,1,9.712.112A19.675,19.675,0,0,1-11.678-.827,22.865,22.865,0,0,1-9.568.532C-8.912,1.013-8.29,1.541-7.618,2A15.6,15.6,0,0,0,10.787,1.38" transform="translate(25.943 3.319)"/></g><g transform="translate(8.483 15.92)"><path class="d" d="M.793,2.094a12.759,12.759,0,0,1,6.04-3.549,12.261,12.261,0,0,1,3.5-.384c.287.016.575.031.862.065.143.014.272.03.416.047a1.917,1.917,0,0,0,.43.031A1.337,1.337,0,0,0,13.3-2.814a1.424,1.424,0,0,0-.767-1.55,9.562,9.562,0,0,0-1.659-.447,12.8,12.8,0,0,0-3.5-.178A13.013,13.013,0,0,0,.841-2.543L-1.907-4.189V.479Z" transform="translate(1.907 5.037)"/></g><g transform="translate(14.65 20.365)"><path class="d" d="M9.121,0V4.669C6.55,6.22,3.993,7.756,1.422,9.306c-1.28.767-2.574,1.536-3.852,2.318l-1.917,1.152c-.129.064-.847.513-.958.561a2.4,2.4,0,0,1-1.086.287,3.346,3.346,0,0,1-2.077-.752l-1.917-1.151c-1.278-.767-2.574-1.55-3.851-2.319-2.571-1.536-5.145-3.086-7.7-4.637V.113c2.572,1.533,5.129,3.084,7.7,4.635,1.277.769,2.572,1.538,3.851,2.319q.958.576,1.917,1.152a3.458,3.458,0,0,0,2.077.766A2.515,2.515,0,0,0-5.321,8.7c.336-.191.639-.384.958-.575.639-.384,1.278-.784,1.917-1.168C-1.152,6.188.127,5.421,1.422,4.637,3.978,3.1,6.55,1.55,9.121,0" transform="translate(21.937)"/></g><g transform="translate(14.219 0.001)"><path class="b" d="M9.243,2.627h0l-.016-.016.016.016-.016-.016Zm-.016-.016h0A11.514,11.514,0,0,1,5.09,3.954a10.906,10.906,0,0,1-2.173.112,1.136,1.136,0,0,0-.511.064,1.4,1.4,0,0,0-.5.289,1.444,1.444,0,0,0-.447.992,1.376,1.376,0,0,0,.4,1.039,1.3,1.3,0,0,0,.447.32,2.017,2.017,0,0,0,.511.11,12.255,12.255,0,0,0,2.173.176,12.491,12.491,0,0,0,4.249-.784v3.36A15.575,15.575,0,0,1-3.905,7.552c-.671-.462-1.293-.99-1.95-1.471A22.552,22.552,0,0,0-7.963,4.721,19.767,19.767,0,0,0-12.516,2.9a19.608,19.608,0,0,0-9.714-.11q3.905-2.353,7.812-4.7c1.294-.769,2.589-1.55,3.9-2.335.639-.4,1.3-.783,1.951-1.182.319-.191.64-.4.957-.576a2.43,2.43,0,0,1,1.1-.3,3.18,3.18,0,0,1,2.094.719c.654.4,1.294.784,1.95,1.168,1.3.783,2.6,1.567,3.9,2.35,2.6,1.569,5.192,3.119,7.8,4.686m.033.016Zm-.017,7a16.306,16.306,0,0,0,5.257-2.7L9.26,6.256c0,.016-.017.016-.017.016Z" transform="translate(22.23 6.319)"/></g></g><g transform="translate(57.606 -32.097)"><path class="d" d="M0,4.446H10.722V1.451H3.246L3.2-10.692H0Z" transform="translate(0 10.692)"/></g><g class="c" transform="translate(0 -51.024)"><g transform="translate(69.525 18.927)"><path class="d" d="M.928.013H-2.233V9.248c0,3.592.47,5.859,5.381,5.859H10.71V-.031h-3.2V12.156H4.131c-2.648,0-3.2-.255-3.2-2.822Z" transform="translate(2.233 0.031)"/></g></g><g transform="translate(119.355 -32.097)"><path class="d" d="M0,0V15.138H3.2V7.655l5.725,7.482h4.1L6.878,7.4,12.945,0h-3.8L3.2,7.27V0Z"/></g><g class="c" transform="translate(0 -51.024)"><g transform="translate(132.041 18.627)"><path class="d" d="M2.221,0h0V2.611c-2.776,0-4.059,1.709-4.059,5.173,0,3.677,1.2,5.386,4.059,5.386V15.78c-5.213,0-7.563-2.523-7.563-8.04C-5.342,2.523-2.862,0,2.221,0m0,2.611c2.776,0,4.056,1.709,4.056,5.3,0,3.549-1.28,5.258-4.056,5.258V15.78c5.127,0,7.518-2.523,7.518-7.869C9.739,2.523,7.348,0,2.221,0Z" transform="translate(5.342)"/></g><g transform="translate(149.217 18.927)"><path class="d" d="M1.919,2.11h0V4.8H-1.412v5.26h-3.2V-5.075H1.919v2.694H-1.412V2.11Zm.343-4.491c2.136,0,3.033.555,3.033,2.267,0,1.5-.9,2.224-2.819,2.224H1.919V4.8h.514c1.921,0,3.375-.086,4.657-.984A4.553,4.553,0,0,0,8.841-.114,4.747,4.747,0,0,0,6.748-4.3c-.94-.6-2.35-.77-4.444-.77H1.919v2.694Z" transform="translate(4.615 5.075)"/></g><g transform="translate(164.039 18.926)"><path class="d" d="M1.054.779h8.8V-1.874H-2.534V9.117c0,2.737,1.923,4.148,4.741,4.148H9.856V10.657H4.643c-2.391-.044-3.589-.258-3.589-1.925v-1.8h8.8V4.286h-8.8Z" transform="translate(2.534 1.874)"/></g><g transform="translate(178.948 18.927)"><path class="d" d="M0,0H6.535V2.694H3.161V6.542H6.535V9.194H3.161v5.943H0ZM6.535,9.194H6.92l3.289,5.943H13.8L10.039,8.81C12,8.425,13.114,6.886,13.114,4.574,13.114,1.413,11.4,0,7.818,0H6.535V2.694h.514c1.921,0,2.819.344,2.819,1.924,0,1.54-.9,1.924-2.819,1.924H6.535Z"/></g></g><g transform="translate(84.604 -32.097)"><path class="d" d="M3.425,3.931h0L9.063-9.454h1.622v3.166l-.041-.127L8.423-.6h2.262V2.09H7.4L6.073,5.684H.69L-5.077-1.8V5.684H-8.238V-9.454h3.161v7.269L.9-9.454h3.8l-6.067,7.4Zm7.26-1.841h3.29l1.368,3.593h3.545L12.437-9.454H10.685v3.166L12.952-.6H10.685Z" transform="translate(8.238 9.454)"/></g><g class="c" transform="translate(0 -51.024)"><g transform="translate(184.989 53.571)"><path class="b" d="M1.918,0A4.8,4.8,0,0,0-1.968,1.589V.164H-4.614v13.18h2.646V5.336A3.054,3.054,0,0,1-1.21,3.187,3.378,3.378,0,0,1,1.06,2.371,5.663,5.663,0,0,1,2,2.444V.007C1.974.007,1.95,0,1.918,0" transform="translate(4.614)"/></g><g transform="translate(84.079 53.571)"><path class="b" d="M1.919,0A4.791,4.791,0,0,0-1.966,1.589V.164H-4.615v13.18h2.649V5.336a3.053,3.053,0,0,1,.755-2.149,3.382,3.382,0,0,1,2.272-.815,5.687,5.687,0,0,1,.944.072V.007C1.975.007,1.95,0,1.919,0" transform="translate(4.615)"/></g><g transform="translate(57.604 48.416)"><path class="b" d="M2.975,1.647h0a2.927,2.927,0,0,0-.9-2.277A3.383,3.383,0,0,0-.3-1.449H-4.346V4.718H-.3A3.376,3.376,0,0,0,2.079,3.9a2.894,2.894,0,0,0,.9-2.251m2.81,0A5.393,5.393,0,0,1,4.163,5.678a5.894,5.894,0,0,1-4.3,1.584H-4.346v7.274h-2.81v-18.5H-.139a5.9,5.9,0,0,1,4.3,1.586A5.385,5.385,0,0,1,5.786,1.65" transform="translate(7.156 3.962)"/></g><g transform="translate(71.059 53.583)"><path class="b" d="M2.448,1.977h0q0-2.71-.91-3.62A2.621,2.621,0,0,0-.407-2.4a2.591,2.591,0,0,0-1.92.755q-.907.913-.908,3.62t.908,3.616a2.6,2.6,0,0,0,1.92.783,2.627,2.627,0,0,0,1.945-.783q.911-.907.91-3.616m2.653,0q0,3.583-1.533,5.17A5.282,5.282,0,0,1-.407,8.733,5.25,5.25,0,0,1-4.356,7.148q-1.533-1.584-1.532-5.17,0-3.561,1.532-5.146A5.25,5.25,0,0,1-.407-4.755,5.282,5.282,0,0,1,3.568-3.169Q5.1-1.585,5.1,1.977" transform="translate(5.888 4.755)"/></g><g transform="translate(92.3 49.977)"><path class="b" d="M1.527,4.974H-.06A3.452,3.452,0,0,1-2.789,3.857,3.743,3.743,0,0,1-3.672,1.31V-11.964h2.653v4H1.527v2.03H-1.019V1.177q0,1.535,1.454,1.533H1.527Z" transform="translate(3.672 11.964)"/></g><g transform="translate(104.489 53.583)"><path class="b" d="M2.448,1.977h0q0-2.71-.909-3.62A2.625,2.625,0,0,0-.406-2.4a2.589,2.589,0,0,0-1.92.755q-.909.913-.909,3.62t.909,3.616a2.594,2.594,0,0,0,1.92.783,2.629,2.629,0,0,0,1.945-.783q.909-.907.909-3.616m2.653,0q0,3.583-1.532,5.17A5.284,5.284,0,0,1-.406,8.733a5.251,5.251,0,0,1-3.95-1.586q-1.533-1.584-1.532-5.17,0-3.561,1.532-5.146A5.251,5.251,0,0,1-.406-4.755,5.284,5.284,0,0,1,3.569-3.169Q5.1-1.585,5.1,1.977" transform="translate(5.888 4.755)"/></g><g transform="translate(117.059 48.292)"><path class="b" d="M1.991,2.265H-.621V13.176H-3.274V2.265H-4.789V.235h1.515V-1.789a3.731,3.731,0,0,1,.882-2.543A3.445,3.445,0,0,1,.33-5.447H1.991v2.262H.827q-1.446,0-1.448,1.529V.235H1.991Z" transform="translate(4.789 5.447)"/></g></g><g transform="translate(131.197 -2.607)"><path class="b" d="M4.234,5.433H.937L-4.257-3.685-7.373.056V5.433h-2.81v-18.5h2.81v9.3l7.556-9.3H3.611l-6,7.249Z" transform="translate(10.183 13.066)"/></g><g class="c" transform="translate(0 -51.024)"><g transform="translate(145.925 53.583)"><path class="b" d="M2.448,1.977h0q0-2.71-.908-3.62A2.625,2.625,0,0,0-.4-2.4a2.6,2.6,0,0,0-1.92.755q-.909.913-.909,3.62t.909,3.616A2.6,2.6,0,0,0-.4,6.376a2.627,2.627,0,0,0,1.945-.783q.909-.907.908-3.616m2.655,0q0,3.583-1.532,5.17A5.286,5.286,0,0,1-.4,8.733,5.24,5.24,0,0,1-4.352,7.148q-1.538-1.584-1.536-5.17,0-3.561,1.536-5.146A5.24,5.24,0,0,1-.4-4.755,5.286,5.286,0,0,1,3.571-3.169Q5.1-1.585,5.1,1.977" transform="translate(5.888 4.755)"/></g><g transform="translate(159.201 53.583)"><path class="b" d="M2.389,1.977h0A7.6,7.6,0,0,0,1.921-1.1,2.285,2.285,0,0,0-.338-2.4,2.283,2.283,0,0,0-2.6-1.1a7.222,7.222,0,0,0-.494,3.072A7.228,7.228,0,0,0-2.6,5.048,2.277,2.277,0,0,0-.338,6.376a2.279,2.279,0,0,0,2.26-1.328,7.609,7.609,0,0,0,.467-3.071m2.653,0q0,4.105-1.479,5.587a4.325,4.325,0,0,1-3.2,1.169A4.288,4.288,0,0,1-3.092,7.225V13.9H-5.745V-4.6h2.653v1.409A4.26,4.26,0,0,1,.368-4.755a4.312,4.312,0,0,1,3.2,1.169Q5.04-2.1,5.042,1.977" transform="translate(5.745 4.755)"/></g><g transform="translate(171.708 53.583)"><path class="b" d="M2.51,1.664h0a4.783,4.783,0,0,0-.365-1.8A2.577,2.577,0,0,0-.452-1.8,2.6,2.6,0,0,0-3.078-.134a4.825,4.825,0,0,0-.337,1.8ZM5.132,3.506H-3.415a3.967,3.967,0,0,0,.871,2.71,3.123,3.123,0,0,0,2.482.99A4.351,4.351,0,0,0,3.13,5.849L4.824,7.434A7.3,7.3,0,0,1,2.718,8.966a6.925,6.925,0,0,1-2.833.521q-5.919,0-5.922-6.756A7.433,7.433,0,0,1-4.529-2.222,5.062,5.062,0,0,1-.452-4,5.193,5.193,0,0,1,3.68-2.235,6.838,6.838,0,0,1,5.132,2.338Z" transform="translate(6.037 4.003)"/></g></g></g></svg>