<svg id="Group_1474" data-name="Group 1474" xmlns="http://www.w3.org/2000/svg" xmlns:xlink="http://www.w3.org/1999/xlink" width="112.547" height="29.694" viewBox="0 0 112.547 29.694">
  <defs>
    <clipPath id="clip-path">
      <rect id="Rectangle_2234" data-name="Rectangle 2234" width="112.547" height="29.694" fill="none"/>
    </clipPath>
  </defs>
  <path id="Path_2732" data-name="Path 2732" d="M48.624,9.244l-14.4,14.8,5.446,5.65,8.957-9.256H68.508L79.434,9.244ZM39.732,0,30.774,9.256H10.893L0,20.45H30.774l14.405-14.8Z" fill="#00a1ed"/>
  <g id="Group_1475" data-name="Group 1475" transform="translate(0 0)">
    <g id="Group_1474-2" data-name="Group 1474" clip-path="url(#clip-path)">
      <path id="Path_2733" data-name="Path 2733" d="M64.8,6.935h2.318l1.922,6.483c.051.187.1.386.16.594s.109.4.16.579c.051.208.1.413.152.611h.031l.152-.626c.051-.179.1-.371.16-.579s.109-.4.16-.579l1.906-6.483h2.243l-3.677,11.2H68.476Z" transform="translate(21.712 2.324)" fill="#1a1818"/>
      <path id="Path_2734" data-name="Path 2734" d="M77.733,6.935H86.5v1.91H83.224V18.13H81.011V8.845H77.733Z" transform="translate(26.044 2.323)" fill="#1a1818"/>
      <rect id="Rectangle_2233" data-name="Rectangle 2233" width="2.211" height="11.196" transform="translate(98.672 9.257)" fill="#1a1818"/>
    </g>
  </g>
</svg>
